<?xml version="1.0" encoding="utf-8"?>
<!-- Generator: Adobe Illustrator 25.1.0, SVG Export Plug-In . SVG Version: 6.00 Build 0)  -->
<svg version="1.1" id="Layer_1" xmlns="http://www.w3.org/2000/svg" xmlns:xlink="http://www.w3.org/1999/xlink" x="0px" y="0px"
	 viewBox="0 0 38 24" style="enable-background:new 0 0 38 24;" xml:space="preserve">
<style type="text/css">
	.st0{opacity:7.000000e-02;enable-background:new    ;}
	.st1{fill:#00ACD9;}
	.st2{fill:#FFFFFF;}
	.st3{font-family:'MyriadPro-Semibold';}
	.st4{font-size:5px;}
</style>
<path class="st0" d="M35,0H3C1.3,0,0,1.3,0,3v18c0,1.7,1.4,3,3,3h32c1.7,0,3-1.3,3-3V3C38,1.3,36.6,0,35,0z"/>
<path class="st1" d="M35,1c1.1,0,2,0.9,2,2v18c0,1.1-0.9,2-2,2H3c-1.1,0-2-0.9-2-2V3c0-1.1,0.9-2,2-2H35"/>
<g>
	<text transform="matrix(1 0 0 1 16.2734 10.9324)"><tspan x="0" y="0" class="st2 st3 st4">Cash On </tspan><tspan x="0" y="5" class="st2 st3 st4">Delivery</tspan></text>
	<g>
		<path class="st2" d="M3.2,14c0.1-0.1,0.1-0.1,0.2-0.1c0.3,0,0.6,0,1,0c0.2,0,0.2,0,0.3,0.2C4.8,14,4.9,14,5,13.9c0,0,0-0.1,0-0.1
			c0-0.6,0-1.2,0-1.7c0-0.2,0-0.3,0.3-0.3c1.4,0,2.8,0,4.2,0c0.2,0,0.3,0.1,0.3,0.2c0,0.6,0,1.1,0,1.7c0,0,0,0.1,0,0.1
			c0.1,0,0.2,0,0.2,0c0.4,0.1,0.6,0.4,0.5,0.8c-0.2,0.5-0.5,0.9-0.9,1.3c-0.4,0.3-0.9,0.5-1.4,0.6c0,0,0,0-0.1,0c-1.6,0-3.2,0-4.8,0
			C3.2,15.6,3.2,14.8,3.2,14z M8.2,12.1c0,0.3,0,0.6,0,0.8c0,0.2-0.1,0.2-0.3,0.2c-0.2-0.1-0.3-0.1-0.5-0.2c-0.1,0-0.1,0-0.2,0
			C7.1,13,7,13.1,6.8,13.2c-0.1,0.1-0.3,0-0.3-0.2c0-0.2,0-0.5,0-0.7c0,0,0-0.1,0-0.1c-0.4,0-0.8,0-1.1,0c0,0.5,0,1,0,1.6
			c0,0,0,0,0,0c0.7-0.1,1.2,0.1,1.6,0.6c0,0,0.1,0,0.1,0c0.3,0,0.5,0,0.8,0c0.3,0,0.5,0.2,0.6,0.4c0,0.1,0,0.2,0,0.3
			c0.1-0.1,0.3-0.1,0.3-0.3c0.2-0.2,0.3-0.5,0.5-0.7c0,0,0-0.1,0-0.1c0-0.6,0-1.2,0-1.8c0,0,0-0.1,0-0.1C9,12.1,8.6,12.1,8.2,12.1z
			 M4.7,16.1C4.7,16.1,4.7,16.1,4.7,16.1c1.1,0,2.2,0,3.2,0c0.6,0,1.2-0.3,1.6-0.7c0.3-0.3,0.4-0.6,0.6-0.9c0,0,0-0.1,0-0.1
			c0-0.1-0.1-0.2-0.2-0.2c-0.1,0-0.2,0-0.2,0.1c-0.2,0.3-0.4,0.5-0.6,0.8c-0.3,0.3-0.6,0.5-1,0.5c-0.3,0-0.7,0-1,0
			c-0.1,0-0.2,0-0.3,0c-0.1,0-0.2-0.1-0.2-0.2c0-0.1,0.1-0.2,0.2-0.2c0.3,0,0.7,0,1,0c0.1,0,0.1,0,0.2,0c0.1,0,0.1-0.1,0.1-0.2
			c0-0.1-0.1-0.2-0.2-0.2c-0.3,0-0.6,0-0.9,0c-0.1,0-0.2,0-0.2-0.1c-0.2-0.4-0.6-0.6-1-0.5c-0.5,0-0.8,0.2-1,0.7c0,0.1,0,0.1,0,0.2
			C4.7,15.2,4.7,15.6,4.7,16.1C4.7,16,4.7,16.1,4.7,16.1z M4.3,16.1c0-0.6,0-1.2,0-1.9c-0.3,0-0.5,0-0.8,0c0,0.6,0,1.2,0,1.9
			C3.8,16.1,4.1,16.1,4.3,16.1z M7.9,12.7c0-0.2,0-0.4,0-0.6c-0.3,0-0.7,0-1,0c0,0.2,0,0.4,0,0.6c0.1-0.1,0.3-0.1,0.4-0.2
			c0.1,0,0.2,0,0.2,0C7.6,12.6,7.7,12.7,7.9,12.7z"/>
		<path class="st2" d="M8.5,11.1c0.1-0.5,0.4-0.8,0.9-0.9c0-0.1,0-0.2,0-0.3C9.2,9.9,9,9.8,8.8,9.7c0,0-0.1,0-0.1,0
			C8.5,9.7,8.3,9.8,8.1,9.8c-0.1,0-0.3,0.1-0.5,0c0,0.3-0.1,0.5-0.4,0.7c-0.2,0.1-0.4,0.1-0.6,0.1c-0.4-0.1-0.6-0.5-0.5-0.9
			c0.1-0.3,0.5-0.7,1-0.5c0-0.1,0.1-0.2,0.1-0.3c0.1-0.1,0.1-0.1,0.2-0.2c0,0,0,0-0.1,0c-0.7,0-1.4,0-2.1,0c-0.1,0-0.1,0-0.1,0.1
			C5.2,9.2,5,9.5,4.6,9.6c0,0,0,0-0.1,0c0,0.2,0,0.4,0,0.6c0.2,0.1,0.3,0.1,0.4,0.2c0.2,0.1,0.3,0.4,0.4,0.6c0,0.1,0,0.1,0.1,0.1
			c0.2,0,0.4,0,0.6,0c0.1,0,0.2,0.1,0.2,0.2c0,0.1-0.1,0.2-0.2,0.2c-0.6,0-1.1,0-1.7,0c-0.1,0-0.2-0.1-0.2-0.2c0-0.9,0-1.7,0-2.6
			c0-0.1,0.1-0.2,0.2-0.2c0.4,0,0.7,0,1.1,0c0.1,0,0.1,0,0.1-0.1c0.5-0.6,1.2-0.9,1.9-0.9c1.5,0,2.9,0,4.4,0c0.1,0,0.2,0.1,0.2,0.2
			c0,0.7,0,1.4,0,2.1c0,0.2-0.1,0.2-0.2,0.2c-0.3,0-0.7,0-1,0c-0.2,0-0.2-0.1-0.2-0.2c0,0,0-0.1,0-0.1c-0.2,0.1-0.3,0.1-0.5,0.2
			C10.1,10,9.9,10,9.7,10c0,0,0,0.1,0,0.2c0,0.4,0,0.7,0,1.1c0,0.1-0.1,0.2-0.2,0.2c-0.6,0-1.2,0-1.8,0c-0.1,0-0.1,0-0.2-0.1
			c0-0.1,0-0.1,0-0.2c0,0,0.1-0.1,0.2-0.1C7.9,11.1,8.2,11.1,8.5,11.1C8.5,11.1,8.5,11.1,8.5,11.1z M6.1,8.4
			C6.1,8.4,6.1,8.4,6.1,8.4c0.9,0,1.7,0,2.5,0c0.2,0,0.4,0,0.6-0.1c0.2-0.1,0.2,0,0.3,0.1c0,0.1,0,0.2-0.2,0.2
			c-0.5,0.1-1,0.3-1.4,0.4c-0.1,0-0.1,0-0.1,0.1c-0.1,0.1-0.1,0.2,0,0.3c0.1,0.1,0.2,0.1,0.3,0.1c0.3-0.1,0.5-0.2,0.8-0.2
			c0.1,0,0.2,0,0.3,0.1c0.5,0.4,1.2,0.4,1.6-0.1c0,0,0.1-0.1,0.1-0.1c0-0.4,0-0.8,0-1.2c0,0,0-0.1,0-0.1c0,0,0,0-0.1,0
			c-1,0-2.1,0-3.1,0c-0.2,0-0.4,0-0.6,0.1C6.6,8,6.3,8.2,6.1,8.4z M11.8,9.7c0-0.6,0-1.2,0-1.9c-0.3,0-0.5,0-0.8,0
			c0,0.6,0,1.2,0,1.9C11.3,9.7,11.5,9.7,11.8,9.7z M7.3,9.9c0-0.2-0.2-0.4-0.4-0.4c-0.2,0-0.4,0.2-0.4,0.4c0,0.2,0.2,0.4,0.4,0.4
			C7.1,10.3,7.3,10.1,7.3,9.9z M4.5,11.1c0.2,0,0.3,0,0.5,0c-0.1-0.2-0.3-0.5-0.5-0.5C4.5,10.7,4.5,10.9,4.5,11.1
			C4.5,11,4.5,11.1,4.5,11.1z M9.4,10.6c-0.3,0.1-0.5,0.3-0.5,0.5c0.2,0,0.3,0,0.5,0C9.4,10.9,9.4,10.8,9.4,10.6z M4.5,9.3
			C4.7,9.2,5,9,5,8.8c-0.2,0-0.3,0-0.5,0C4.5,8.9,4.5,9.1,4.5,9.3z"/>
		<path class="st2" d="M6.9,11.1c0,0.1-0.1,0.2-0.2,0.2c-0.1,0-0.2-0.1-0.2-0.2c0-0.1,0.1-0.2,0.2-0.2C6.8,10.9,6.9,11,6.9,11.1z"/>
	</g>
</g>
</svg>
