<?xml version="1.0" encoding="utf-8"?>
<!-- Generator: Adobe Illustrator 25.1.0, SVG Export Plug-In . SVG Version: 6.00 Build 0)  -->
<svg version="1.1" id="Layer_1" xmlns="http://www.w3.org/2000/svg" xmlns:xlink="http://www.w3.org/1999/xlink" x="0px" y="0px"
	 viewBox="0 0 38 24" style="enable-background:new 0 0 38 24;" xml:space="preserve">
<style type="text/css">
	.st0{opacity:7.000000e-02;enable-background:new    ;}
	.st1{fill:#FFFFFF;}
	.st2{fill:#5D2E8E;}
	.st3{fill-rule:evenodd;clip-rule:evenodd;fill:#5D2E8E;}
	.st4{fill-rule:evenodd;clip-rule:evenodd;fill:#F9A61C;}
</style>
<path class="st0" d="M35,0H3C1.3,0,0,1.3,0,3v18c0,1.7,1.4,3,3,3h32c1.7,0,3-1.3,3-3V3C38,1.3,36.6,0,35,0z"/>
<path class="st1" d="M34.8,1c1.1,0,2,0.9,2,2v18c0,1.1-0.9,2-2,2h-32c-1.1,0-2-0.9-2-2V3c0-1.1,0.9-2,2-2H34.8"/>
<desc>Created with Sketch.</desc>
<g id="Page-1">
	<g id="khalti-logo-01" transform="translate(2.000000, 0.000000)">
		<g id="XMLID_486_" transform="translate(18.000000, 0.000000)">
			<g id="XMLID_487_">
				<path id="XMLID_488_" class="st2" d="M-2.4,7c-0.1-0.1-0.2-0.2-0.4-0.2h-9.5c-0.2,0-0.3,0.1-0.4,0.2c-0.1,0.1-0.2,0.3-0.1,0.4
					l0.7,6.5c0,0.4,0.4,0.9,0.7,1.1l3.4,2c0.2,0.1,0.4,0.1,0.6,0.1c0.2,0,0.4-0.1,0.6-0.1l3.4-2c0.3-0.2,0.6-0.7,0.7-1.1l0.7-6.5
					C-2.3,7.3-2.3,7.1-2.4,7z M-5.2,14.2C-5.5,14.4-5.8,14.3-6,14l-1.7-2.5l-1,1v1.1c0,0.3-0.3,0.6-0.6,0.6c-0.3,0-0.6-0.3-0.6-0.6
					v-5c0-0.3,0.3-0.6,0.6-0.6c0.3,0,0.6,0.3,0.6,0.6v2.1l2.6-2.6c0.2-0.2,0.6-0.2,0.8,0c0.2,0.2,0.2,0.6,0,0.8l-1.5,1.5
					c0,0,0,0,0,0l1.8,2.7C-4.8,13.6-4.9,14-5.2,14.2z"/>
			</g>
		</g>
		<g id="XMLID_483_" transform="translate(131.000000, 14.000000)">
			<g id="XMLID_484_">
				<path id="XMLID_485_" class="st3" d="M-100.6-4.8v4.2c0,0.6-0.5,1-1,1h-13.9l0-0.4h13.8c0.3,0,0.6-0.3,0.6-0.6v-4.2
					c0-0.3-0.3-0.6-0.6-0.6h-13.3l0-0.4h13.2C-101.1-5.9-100.6-5.4-100.6-4.8z"/>
			</g>
		</g>
		<g id="XMLID_479_" transform="translate(147.000000, 31.000000)">
			<g id="XMLID_482_-link">
				<path id="XMLID_482_" class="st3" d="M-129.7-20.9C-129.7-21-129.8-21-129.7-20.9L-130-21v-0.4h0.4c0.2,0,0.3,0.1,0.3,0.3v1.5
					h0.2c0.1,0,0.2,0,0.2-0.1l0.5-0.7h0.5l-0.6,0.8c-0.1,0.1-0.2,0.2-0.2,0.2v0c0,0,0.1,0,0.1,0.2l0.3,0.6c0,0.1,0.1,0.1,0.2,0.1
					h0.1v0.4h-0.3c-0.2,0-0.3,0-0.4-0.2l-0.4-0.8c-0.1-0.1-0.1-0.1-0.2-0.1h-0.2v1.1h-0.4L-129.7-20.9z"/>
			</g>
		</g>
		<g id="XMLID_476_" transform="translate(173.000000, 31.000000)">
			<g id="XMLID_477_">
				<path id="XMLID_478_" class="st3" d="M-153.4-20.9C-153.4-21-153.4-21-153.4-20.9l-0.3-0.1v-0.4h0.4c0.2,0,0.3,0.1,0.3,0.3v0.9
					c0,0.1,0,0.2,0,0.2h0c0.1-0.2,0.4-0.5,0.8-0.5c0.5,0,0.8,0.3,0.8,0.9v1c0,0.1,0,0.1,0.1,0.1h0.2v0.4h-0.4
					c-0.2,0-0.3-0.1-0.3-0.3v-1c0-0.3-0.1-0.6-0.4-0.6c-0.3,0-0.6,0.2-0.7,0.6c0,0.1,0,0.2,0,0.3v1.1h-0.4L-153.4-20.9z"/>
			</g>
		</g>
		<g id="XMLID_470_" transform="translate(205.000000, 40.000000)">
			<g id="XMLID_473_-link">
				<path id="XMLID_473_" class="st2" d="M-181.8-27.5c0.4,0,0.6-0.4,0.6-0.7v-0.1h-0.1c-0.3,0-0.9,0-0.9,0.4
					C-182.3-27.6-182.1-27.5-181.8-27.5z M-181.3-28.6L-181.3-28.6L-181.3-28.6c0.1-0.4-0.1-0.6-0.4-0.6c-0.1,0-0.4,0-0.4,0.2v0.1
					h-0.4v-0.2c0-0.4,0.6-0.4,0.8-0.4c0.7,0,0.9,0.4,0.9,0.9v1c0,0.1,0,0.1,0.1,0.1h0.2v0.4h-0.4c-0.2,0-0.3-0.1-0.3-0.3
					c0-0.1,0-0.1,0-0.1h0c0,0-0.2,0.4-0.7,0.4c-0.4,0-0.8-0.2-0.8-0.7C-182.7-28.5-181.7-28.6-181.3-28.6z"/>
			</g>
		</g>
		<g id="XMLID_466_" transform="translate(231.000000, 31.000000)">
			<g id="XMLID_469_-link">
				<path id="XMLID_469_" class="st3" d="M-206.2-21h-0.2v-0.4h0.4c0.2,0,0.3,0.1,0.3,0.3v2.4c0,0.1,0,0.1,0.1,0.1h0.2v0.4h-0.4
					c-0.2,0-0.3-0.1-0.3-0.3L-206.2-21C-206.1-20.9-206.1-21-206.2-21z"/>
			</g>
		</g>
		<g id="XMLID_463_" transform="translate(244.000000, 34.000000)">
			<g id="XMLID_464_">
				<path id="XMLID_465_" class="st3" d="M-217.9-23.1h-0.3v-0.3h0.3v-0.6h0.4v0.6h0.5v0.3h-0.5v1c0,0.4,0.3,0.5,0.5,0.5
					c0.1,0,0.1,0,0.1,0v0.4c0,0-0.1,0-0.1,0c-0.3,0-0.9-0.1-0.9-0.9L-217.9-23.1L-217.9-23.1z"/>
			</g>
		</g>
		<g id="XMLID_460_" transform="translate(265.000000, 31.000000)">
			<g id="XMLID_461_">
				<path id="XMLID_462_" class="st3" d="M-237.2-21.3h0.3c0,0,0.1,0,0.1,0.1v0.3c0,0,0,0.1-0.1,0.1h-0.3c0,0-0.1,0-0.1-0.1
					L-237.2-21.3C-237.2-21.3-237.2-21.3-237.2-21.3z"/>
			</g>
		</g>
		<g id="XMLID_457_" transform="translate(262.000000, 41.000000)">
			<g id="XMLID_458_">
				<path id="XMLID_459_" class="st3" d="M-234.2-30C-234.2-30-234.3-30.1-234.2-30l-0.3-0.1v-0.4h0.4c0.2,0,0.3,0.1,0.3,0.3v1.5
					c0,0.1,0,0.1,0.1,0.1h0.2v0.4h-0.4c-0.2,0-0.3-0.1-0.3-0.3V-30z"/>
			</g>
		</g>
		
			<g id="XMLID_432_" transform="translate(8.500000, 38.000000) rotate(-6.000000) translate(-8.500000, -38.000000) translate(0.000000, 18.000000)">
			<g id="XMLID_453_-link" transform="translate(0.000000, 1.000000)">
				<polygon id="XMLID_453_" class="st4" points="7.5,-10.8 6.4,-10.6 6.8,-7.3 7.8,-7.4 				"/>
			</g>
			<g id="XMLID_454_">
				<g id="XMLID_455_">
					
						<rect id="XMLID_456_" x="6.3" y="-9.8" transform="matrix(-1 3.005805e-06 -3.005805e-06 -1 14.2071 -16.0648)" class="st4" width="1.5" height="3.5"/>
				</g>
			</g>
		</g>
	</g>
</g>
</svg>
